<?xml version="1.0" encoding="utf-8"?>
<!-- Generator: Adobe Illustrator 27.7.0, SVG Export Plug-In . SVG Version: 6.00 Build 0)  -->
<svg version="1.1" id="Layer_1" xmlns="http://www.w3.org/2000/svg" xmlns:xlink="http://www.w3.org/1999/xlink" x="0px" y="0px"
	 viewBox="0 0 2000 2000" style="enable-background:new 0 0 2000 2000;" xml:space="preserve">
<style type="text/css">
	.st0{opacity:0.33;fill:#085BAF;enable-background:new    ;}
</style>
<path class="st0" d="M1652.1,69.4v0.2c-0.2-0.1-0.4-0.2-0.6-0.2H1652.1z"/>
<path class="st0" d="M1656.9,905.5v0.7h-1.9C1655.6,905.9,1656.3,905.7,1656.9,905.5z"/>
<path d="M1967.2,745c0,193-123.8,357-296.3,417.1c-0.6,0.2-1.2,0.4-1.9,0.7h-331.6v585.9c-82.5,0-157.2-33.4-211.2-87.5
	c-54.1-54.1-87.5-128.7-87.5-211.2v-221.5c-1.5,34-6.3,67.1-14.3,99C970.1,1546.7,772,1709.2,536,1709.2
	c-278,0-505.6-229.8-503.1-507.7c0.8-89.6,25-173.6,66.9-246.2c79.4-137.9,222.4-234.5,388.9-250.1h503.7
	c0,69.1-28,131.6-73.3,176.8c-45.3,45.3-107.8,73.3-176.8,73.3H586.5c-14.2-2.5-28.9-3.8-43.8-3.8c-14.9,0-29.6,1.3-43.8,3.8
	c-117.6,20.7-207,123.4-207,247c0,138.6,111.7,250.5,250.3,250.9c93.2,0.2,174.5-50.4,218-125.6H542.8v-25
	c0-124.6,101-225.6,225.6-225.6h270.3V740.9h298.7v171.4h209.4c58.1-22.2,99.4-78.4,99.4-144.3c0-64.9-40-120.4-96.7-143.3H844.7
	c-82.5,0-149.3-66.9-149.3-149.3c0-41.2,16.7-78.6,43.8-105.6c27-27,64.3-43.7,105.5-43.7h820.8c87.7,29.2,163.1,85.2,216.6,158.2
	C1935.6,557.4,1967.2,647.5,1967.2,745z"/>
</svg>
